<?xml version="1.0" standalone="no"?>
<!DOCTYPE svg PUBLIC "-//W3C//DTD SVG 20010904//EN"
 "http://www.w3.org/TR/2001/REC-SVG-20010904/DTD/svg10.dtd">
<svg version="1.0" xmlns="http://www.w3.org/2000/svg"
 width="720.000000pt" height="720.000000pt" viewBox="0 0 720.000000 720.000000"
 preserveAspectRatio="xMidYMid meet">
<metadata>
Created by potrace 1.14, written by Peter Selinger 2001-2017
</metadata>
<g transform="translate(0.000000,720.000000) scale(0.100000,-0.100000)"
fill="#000000" stroke="none">
<path d="M0 3600 l0 -3600 3600 0 3600 0 0 3600 0 3600 -3600 0 -3600 0 0
-3600z m5386 2189 c333 -46 599 -341 776 -859 81 -238 156 -645 161 -875 l2
-89 -225 -52 c-124 -28 -235 -54 -247 -58 -32 -10 -35 5 -13 70 28 79 57 230
65 334 10 121 -1 95 -15 -35 -28 -263 -119 -488 -250 -622 -52 -52 -132 -103
-165 -103 -22 0 -19 -6 21 -61 25 -34 41 -48 53 -45 186 57 766 226 776 226
12 0 15 -19 14 -97 0 -54 -3 -115 -7 -137 l-7 -38 -124 -44 c-69 -24 -128 -47
-132 -51 -4 -5 -12 -111 -18 -236 -12 -242 -16 -262 -70 -341 -39 -56 -130
-156 -143 -156 -5 0 -6 5 -3 10 5 9 -15 15 -38 11 -4 -1 -3 8 3 18 7 14 16 18
28 14 16 -6 16 -6 0 11 -19 19 -25 41 -8 31 6 -3 10 -1 10 4 0 6 -10 10 -21 8
-12 -1 -24 4 -26 11 -3 6 0 12 7 12 6 0 8 -5 4 -12 -5 -7 -3 -8 6 -3 10 6 8
12 -9 27 -13 10 -18 18 -12 18 6 0 11 6 11 14 0 10 -8 13 -27 10 -27 -5 -27
-5 -8 10 14 11 17 18 8 24 -6 4 -11 22 -11 40 1 18 -2 35 -5 38 -4 4 18 53 48
109 30 56 52 105 49 108 -3 3 -20 0 -37 -7 -18 -7 -54 -21 -80 -31 l-49 -17 4
-148 c1 -82 0 -151 -3 -155 -11 -11 -57 17 -68 42 -11 24 -10 24 19 18 16 -4
30 -4 30 0 0 4 -16 59 -37 123 -33 106 -43 126 -107 208 -70 90 -73 93 -176
143 l-105 50 -125 6 -125 6 -145 -54 c-137 -50 -153 -58 -285 -156 -129 -96
-150 -116 -264 -255 -113 -139 -131 -166 -216 -336 l-92 -185 -41 -195 c-28
-135 -39 -208 -35 -238 3 -23 3 -42 -1 -42 -8 0 -211 88 -278 121 -26 12 -45
26 -42 31 3 4 -14 17 -38 27 -24 10 -63 28 -88 40 -24 11 -48 21 -52 21 -14 0
12 -41 30 -47 71 -22 70 -22 77 -87 7 -60 -26 -451 -41 -489 -3 -10 -2 -23 4
-30 6 -6 9 -27 7 -44 -1 -18 2 -33 7 -33 5 0 7 -12 4 -28 -4 -15 0 -39 8 -54
34 -65 -45 -51 -284 50 -47 20 -112 57 -145 82 -146 113 -182 138 -205 145
-26 8 -81 31 -166 71 -29 13 -63 37 -77 53 -14 17 -46 91 -72 168 l-47 138
-10 197 -10 197 36 205 c34 191 42 219 110 393 65 168 84 205 178 348 96 148
113 168 227 270 79 71 140 117 174 131 61 26 62 25 -99 54 l-120 21 -66 -26
c-51 -20 -93 -50 -182 -128 -101 -90 -128 -120 -217 -251 -92 -134 -109 -167
-179 -340 -71 -178 -79 -205 -113 -391 -36 -197 -37 -203 -30 -378 6 -175 7
-179 53 -330 26 -83 44 -153 40 -155 -15 -6 -111 50 -126 73 -8 12 -35 77 -61
146 -46 124 -46 125 -57 309 -14 226 -4 310 43 369 17 21 49 73 72 117 24 43
56 98 71 122 25 37 78 144 78 157 0 3 -6 5 -12 5 -7 0 -22 -21 -32 -47 -11
-25 -40 -78 -66 -117 -25 -39 -62 -98 -81 -131 -79 -137 -266 -280 -382 -292
-30 -3 -67 -3 -81 1 -25 6 -26 9 -26 86 0 46 13 155 31 253 29 159 36 185 104
344 66 154 84 186 180 317 120 163 191 232 230 222 49 -12 91 -62 125 -148 38
-97 47 -170 30 -253 -7 -33 -16 -85 -20 -115 -4 -31 -10 -66 -14 -78 -5 -16
-3 -22 8 -22 10 0 18 18 26 58 6 31 18 84 25 117 7 33 16 85 20 116 10 84 58
147 204 272 88 76 138 111 172 122 27 9 49 20 49 25 0 4 -16 11 -35 14 -26 5
-53 0 -106 -21 -57 -22 -95 -48 -185 -126 -63 -54 -118 -96 -124 -92 -5 3 -10
17 -10 31 0 47 -37 96 -106 141 -18 12 -17 14 19 46 21 18 63 42 93 52 62 21
78 35 40 35 -14 0 -27 -4 -30 -9 -3 -4 -27 -14 -52 -21 -26 -8 -67 -28 -90
-47 -43 -32 -47 -33 -156 -37 -208 -8 -420 -83 -600 -213 -102 -73 -146 -123
-192 -218 -56 -115 -71 -196 -57 -307 29 -227 123 -401 281 -523 135 -104 284
-115 397 -29 18 14 37 23 42 20 4 -3 11 -79 14 -168 5 -152 8 -171 41 -273 20
-60 39 -125 42 -143 l6 -32 -43 19 c-24 10 -57 26 -74 35 -16 9 -34 16 -38 16
-5 0 -23 11 -41 25 -18 14 -40 25 -48 25 -8 0 -41 14 -73 30 -32 17 -65 30
-72 30 -7 0 -13 5 -13 12 0 6 -3 9 -6 5 -3 -3 -23 4 -43 17 -20 12 -70 35
-111 51 -41 16 -79 32 -85 37 -5 4 -17 8 -26 8 -10 0 -47 16 -83 35 -37 19
-74 35 -83 35 -14 0 -66 14 -98 27 -11 4 -31 16 -88 51 -20 13 -43 25 -50 26
-6 1 -30 11 -52 21 -62 28 -108 45 -127 45 -10 0 -18 4 -18 10 0 9 -73 27 -76
19 -1 -2 -12 5 -25 16 -12 11 -19 14 -14 6 5 -10 1 -9 -16 2 -13 9 -40 19 -60
22 -35 7 -38 11 -78 103 -38 90 -42 108 -55 247 -13 150 -13 150 16 314 18 98
39 186 54 220 14 31 32 74 39 96 12 37 47 103 120 221 17 27 46 64 65 84 19
19 44 47 56 62 11 15 73 65 137 112 87 65 131 90 177 103 51 14 61 21 66 42
86 388 307 864 522 1121 129 154 316 320 422 375 43 22 121 45 132 39 4 -3 8
-1 8 5 0 6 7 8 15 5 9 -4 28 -2 43 4 15 6 55 13 90 17 34 3 85 10 113 15 28 6
79 12 113 15 33 3 84 10 111 15 48 9 131 18 370 40 157 15 741 30 1070 28 154
0 267 -3 250 -5 -76 -11 -229 -56 -292 -86 -229 -110 -454 -331 -656 -645
l-47 -72 -57 6 c-32 3 -68 7 -81 10 l-22 4 19 38 c46 90 192 274 310 393 174
174 345 281 521 327 51 13 59 18 37 20 -41 5 -227 -45 -306 -81 -219 -102
-460 -333 -661 -634 -40 -61 -34 -59 -190 -38 -58 8 -111 15 -117 15 -20 0
-15 22 12 62 14 20 25 39 25 42 0 4 -17 6 -38 6 -35 0 -41 -4 -71 -51 l-33
-50 -347 2 c-342 2 -347 1 -442 -24 -222 -58 -269 -102 -428 -399 -56 -103
-122 -323 -123 -408 -1 -104 34 -159 117 -182 31 -8 30 -8 -115 6 -45 5 178
-38 310 -59 l35 -5 -30 15 c-16 8 -21 13 -10 10 23 -5 846 -145 1201 -205 133
-22 262 -40 286 -40 72 0 138 40 223 136 l74 83 52 163 c28 90 82 240 120 334
38 95 72 186 75 203 10 48 -4 97 -40 145 l-34 44 55 103 c130 245 366 522 554
650 85 57 207 116 304 146 71 22 106 26 305 32 356 12 374 12 456 0z m-3348
-904 c5 -4 -28 -75 -35 -75 -10 0 -83 72 -83 81 0 6 109 1 118 -6z m333 -52
c61 -33 73 -65 55 -151 -15 -76 -53 -139 -129 -216 -63 -65 -129 -106 -168
-106 -12 0 -41 12 -64 27 -36 22 -44 34 -54 75 -16 71 -14 102 11 150 62 122
146 207 228 233 62 19 66 19 121 -12z m664 -47 c77 -36 90 -56 89 -136 0 -54
-6 -80 -30 -126 -39 -79 -157 -197 -230 -231 -64 -29 -94 -27 -153 12 -33 22
-41 35 -53 84 -8 31 -12 66 -8 76 4 11 3 23 -2 26 -5 3 1 25 13 50 69 134 164
229 256 254 64 18 61 18 118 -9z m-1110 -6 c8 -14 -14 -52 -26 -44 -5 3 -16 0
-24 -6 -19 -16 -35 -4 -35 27 0 16 5 23 13 20 6 -2 21 -1 32 4 28 11 33 10 40
-1z m1511 -3 c6 -6 -39 -107 -48 -107 -4 0 -8 4 -8 9 0 5 -6 9 -12 8 -31 -1
-48 4 -48 13 0 6 7 10 15 10 17 0 13 9 -22 59 l-18 24 69 -6 c38 -4 70 -8 72
-10z m-72 -146 c9 -15 -5 -43 -19 -37 -7 2 -17 0 -22 -5 -14 -14 -43 0 -43 21
0 23 72 41 84 21z m-1526 -38 c2 -7 -5 -16 -15 -19 -10 -3 -25 -9 -34 -14 -13
-7 -18 -3 -21 15 -4 16 0 26 11 29 27 7 54 2 59 -11z m1461 -97 c17 -20 -2
-29 -33 -15 -25 12 -33 29 -20 42 8 8 36 -7 53 -27z m-119 -46 c0 -5 -5 -10
-11 -10 -5 0 -7 5 -4 10 3 6 8 10 11 10 2 0 4 -4 4 -10z m96 -10 c11 0 14 -8
12 -27 -2 -20 -10 -29 -33 -35 -16 -4 -32 -4 -35 1 -3 4 -13 11 -23 14 -10 4
-17 13 -15 20 6 16 50 38 66 32 8 -3 20 -5 28 -5z m-64 -120 c12 0 3 -72 -12
-100 -11 -20 -42 -17 -60 5 -17 20 24 109 46 101 8 -3 20 -6 26 -6z m3122
-426 c3 -9 6 -35 6 -59 l0 -44 -52 -15 c-70 -20 -562 -146 -571 -146 -13 0 -7
19 25 72 18 29 33 54 34 56 1 1 75 23 165 47 90 24 211 58 269 74 127 36 117
34 124 15z m-4225 -186 c0 -7 -20 -29 -43 -48 -24 -19 -85 -96 -137 -170 -82
-119 -101 -157 -167 -320 -68 -169 -77 -201 -108 -373 -25 -142 -32 -202 -27
-247 7 -73 2 -75 -86 -22 -238 140 -366 507 -263 752 18 41 49 98 70 125 100
133 379 279 587 308 73 10 175 7 174 -5z m3272 -737 c53 -30 112 -81 93 -81
-5 0 -28 11 -52 25 -63 36 -154 49 -241 36 -93 -15 -103 -14 -99 5 6 30 85 54
169 50 62 -3 85 -9 130 -35z m11 -300 c98 -44 186 -175 231 -343 19 -74 22
-107 22 -308 0 -194 -3 -240 -23 -331 -78 -374 -217 -664 -412 -859 -87 -87
-184 -149 -260 -165 -209 -45 -372 120 -436 440 -24 120 -24 381 0 515 69 384
214 697 419 904 127 128 231 180 347 172 36 -2 86 -13 112 -25z"/>
<path d="M5396 4929 c-127 -85 -241 -295 -298 -550 -19 -88 -23 -132 -23 -289
0 -185 4 -214 51 -377 5 -19 1 -23 -30 -29 -21 -3 -35 -8 -32 -11 7 -7 118
-35 122 -30 2 2 -7 29 -21 59 -92 201 -99 533 -18 793 68 215 186 390 305 448
26 13 28 17 12 17 -11 0 -42 -14 -68 -31z"/>
<path d="M5740 4894 c0 -6 7 -17 15 -24 54 -45 119 -230 135 -385 12 -105 20
-146 20 -94 0 116 -45 312 -91 399 -32 61 -78 121 -79 104z"/>
<path d="M5630 4539 c-40 -16 -60 -40 -60 -72 l0 -31 28 27 c34 33 86 37 102
8 28 -53 -2 -155 -52 -179 -20 -9 -28 -21 -28 -39 0 -21 4 -24 21 -20 37 10
59 -25 59 -93 0 -100 -41 -167 -97 -158 -15 3 -36 9 -45 13 -27 11 -25 -51 1
-65 89 -47 179 79 169 238 -3 53 -8 68 -28 84 -22 17 -23 22 -10 41 33 53 43
84 44 138 1 90 -41 134 -104 108z"/>
<path d="M5366 4474 c-38 -8 -70 -15 -72 -16 -1 -2 -5 -72 -9 -157 -7 -149 -7
-154 11 -146 11 5 38 10 62 13 40 4 43 3 57 -32 27 -63 12 -165 -31 -211 -25
-27 -70 -33 -105 -15 -17 10 -19 7 -19 -29 0 -36 2 -39 33 -44 86 -14 153 75
164 217 5 58 2 86 -11 120 -19 49 -36 59 -91 55 -19 -2 -37 -1 -40 3 -3 3 -3
44 1 91 l7 85 73 12 c72 11 74 12 74 41 0 33 -1 33 -104 13z"/>
<path d="M1358 4043 c6 -2 18 -2 25 0 6 3 1 5 -13 5 -14 0 -19 -2 -12 -5z"/>
<path d="M1950 3323 c-8 -3 -18 -11 -22 -17 -18 -26 -7 -32 50 -29 77 5 106
-11 110 -60 5 -55 -31 -87 -96 -87 -37 0 -51 -4 -56 -16 -4 -9 -5 -17 -4 -18
2 -1 20 -9 40 -19 24 -10 40 -25 44 -41 9 -38 -13 -91 -52 -126 -52 -45 -95
-39 -160 22 l-31 29 -6 -37 c-5 -30 -2 -40 16 -55 61 -53 133 -67 180 -36 39
25 98 119 104 164 4 32 0 45 -22 71 -24 29 -25 32 -8 38 71 21 118 78 109 132
-6 42 -22 61 -63 79 -32 13 -105 16 -133 6z"/>
<path d="M5778 3143 c7 -3 16 -2 19 1 4 3 -2 6 -13 5 -11 0 -14 -3 -6 -6z"/>
<path d="M5703 3122 c-46 -17 -56 -32 -23 -32 11 0 20 4 20 9 0 5 14 14 30 20
17 5 30 12 30 15 0 8 -8 6 -57 -12z"/>
<path d="M2304 4603 c-39 -42 -78 -134 -57 -133 25 1 113 114 113 144 0 25
-28 19 -56 -11z"/>
<path d="M2960 4645 c-7 -8 -10 -22 -6 -30 6 -17 46 -21 46 -4 0 5 -4 7 -10 4
-5 -3 -10 1 -10 10 0 9 5 13 10 10 6 -3 10 1 10 9 0 20 -24 21 -40 1z"/>
<path d="M3025 4580 c-10 -11 -23 -20 -30 -20 -32 0 -119 -141 -113 -182 3
-19 7 -17 54 20 29 23 64 63 81 94 48 86 53 138 8 88z"/>
<path d="M1562 3417 c-19 -22 -91 -195 -84 -201 3 -3 19 -6 35 -6 40 0 95 -28
103 -52 11 -37 -6 -87 -43 -123 -49 -48 -89 -48 -142 0 l-39 35 -6 -36 c-9
-43 1 -56 60 -85 80 -38 120 -18 188 95 60 100 43 170 -49 197 -25 7 -45 19
-45 25 0 28 40 104 55 104 9 0 48 -7 87 -16 64 -15 72 -15 86 0 23 22 9 31
-78 50 -41 9 -84 19 -96 22 -12 3 -26 -1 -32 -9z"/>
<path d="M5256 2568 c-3 -12 -17 -147 -31 -298 l-26 -275 37 -32 c21 -18 40
-33 43 -32 3 0 72 77 153 170 l147 169 -26 73 c-59 160 -125 226 -240 242 -49
6 -52 5 -57 -17z"/>
<path d="M4969 2443 c-130 -134 -220 -298 -293 -530 -19 -59 -33 -109 -33
-109 1 -1 54 -4 117 -7 82 -4 107 -3 88 4 -24 9 -26 13 -17 39 7 19 22 32 42
40 32 11 32 11 9 23 -12 7 -29 23 -38 35 -14 20 -14 23 1 28 14 6 182 -30 193
-41 2 -2 -13 -33 -33 -70 -21 -36 -35 -69 -31 -72 8 -8 7 -10 56 80 l42 78
-18 280 c-9 153 -20 279 -24 279 -3 0 -31 -26 -61 -57z"/>
<path d="M5597 1963 c-4 -3 -7 -21 -7 -40 0 -18 -5 -33 -11 -33 -7 0 -9 10 -7
25 5 22 3 23 -16 13 -16 -8 -221 -154 -244 -174 -2 -1 -14 -42 -26 -91 l-23
-89 42 -84 42 -83 8 34 c4 19 9 40 10 47 2 6 -1 10 -6 6 -5 -3 -9 2 -9 10 0 9
7 17 15 17 8 1 21 2 28 3 6 0 12 6 12 11 0 6 4 16 8 23 5 6 6 16 3 21 -3 4 2
27 11 50 15 38 27 46 60 42 6 -1 14 12 18 29 4 16 11 32 16 35 5 4 9 18 9 33
0 16 8 32 19 39 11 7 21 25 24 40 2 18 5 10 6 -20 3 -121 -42 -297 -130 -499
-20 -48 -34 -90 -29 -93 9 -6 75 143 118 270 32 93 57 219 67 340 3 39 8 82
10 98 4 26 -4 35 -18 20z"/>
<path d="M4752 1498 l-184 -59 7 -112 c11 -183 29 -280 66 -345 44 -80 120
-168 129 -150 4 7 54 141 110 298 l101 285 -17 65 c-9 36 -19 68 -23 71 -3 3
-88 -21 -189 -53z"/>
<path d="M5117 1341 l-48 -26 -84 -259 c-47 -143 -84 -261 -82 -262 6 -6 111
54 116 67 8 18 195 200 221 214 12 6 17 15 13 20 -4 4 -2 5 6 0 13 -7 41 -65
41 -83 0 -17 -101 -137 -163 -193 -39 -34 -82 -63 -114 -74 -29 -10 -51 -21
-48 -23 2 -2 35 8 72 22 56 21 81 39 134 94 36 37 83 88 104 115 l38 47 -69
172 c-38 94 -73 176 -79 183 -7 8 -22 5 -58 -14z"/>
</g>
</svg>
